<?xml version="1.0" encoding="UTF-8"?>
<svg version="1.1" xmlns="http://www.w3.org/2000/svg" width="710" height="709">
<path d="M0 0 C0.99891266 0.00182281 1.99782532 0.00364563 3.02700806 0.00552368 C19.67639595 0.05639971 36.01613316 0.78920796 52.5 3.3125 C53.62277344 3.48410645 54.74554688 3.65571289 55.90234375 3.83251953 C114.88988802 13.19788021 171.82154998 36.82441647 218.5 74.3125 C219.41394531 75.02664062 220.32789063 75.74078125 221.26953125 76.4765625 C223.70717318 78.39044615 226.10711188 80.34299809 228.5 82.3125 C229.47066406 83.09753906 230.44132813 83.88257812 231.44140625 84.69140625 C239.30523918 91.16498766 246.59608302 98.19528695 253.8125 105.375 C254.7312793 106.28459473 255.65005859 107.19418945 256.59667969 108.13134766 C262.657362 114.21938949 268.14199781 120.60396908 273.5 127.3125 C274.37513787 128.35175394 275.25526484 129.38687201 276.14453125 130.4140625 C328.87043793 191.78511784 355.69367642 274.08862545 355.75 354.3125 C355.75101212 355.62208679 355.75101212 355.62208679 355.75204468 356.95812988 C355.70959766 391.84084842 350.47604054 425.88564626 340.5 459.3125 C340.22961914 460.22016113 339.95923828 461.12782227 339.68066406 462.06298828 C325.55803864 508.58813678 300.88676082 552.10010255 268.5 588.3125 C267.85417969 589.0444458 267.20835937 589.7763916 266.54296875 590.53051758 C261.08136597 596.67664937 255.4111983 602.5875687 249.59863281 608.39916992 C248.1279359 609.87205972 246.66546466 611.35280265 245.203125 612.83398438 C238.97199473 619.10260836 232.44942893 624.84285976 225.5 630.3125 C224.7383252 630.92279053 223.97665039 631.53308105 223.19189453 632.16186523 C213.29471353 640.07716738 203.22202295 647.55315438 192.5 654.3125 C191.92813965 654.67617676 191.3562793 655.03985352 190.76708984 655.41455078 C179.08878988 662.7932784 166.81223248 669.07058811 154.5 675.3125 C153.76056152 675.69293457 153.02112305 676.07336914 152.25927734 676.46533203 C121.86529236 692.02441893 88.01035436 700.70973869 54.5 706.3125 C53.46294922 706.49329102 52.42589844 706.67408203 51.35742188 706.86035156 C-28.6582851 720.24954005 -118.39001853 700.99696066 -186.5 657.3125 C-187.10553711 656.92852051 -187.71107422 656.54454102 -188.33496094 656.14892578 C-204.61052538 645.77099176 -220.14809853 634.22143486 -234.5 621.3125 C-235.30679199 620.59030273 -235.30679199 620.59030273 -236.12988281 619.85351562 C-247.47259847 609.66072135 -258.79346023 599.09757115 -268.5 587.3125 C-268.94102051 586.78527344 -269.38204102 586.25804687 -269.83642578 585.71484375 C-331.38427103 512.05629163 -360.9519359 418.58988212 -353.24609375 323.03125 C-346.27832307 246.25873047 -314.67028223 172.40145106 -261.921875 115.91796875 C-259.85300812 113.69226841 -257.85140442 111.43231617 -255.875 109.125 C-249.62643065 101.93690829 -242.7320803 95.49065905 -235.5 89.3125 C-234.48232945 88.42011797 -233.46546778 87.52681303 -232.44921875 86.6328125 C-208.37923015 65.56765086 -181.42167401 47.99448932 -152.52099609 34.27783203 C-151.15962221 33.62756961 -149.80320344 32.9668424 -148.45166016 32.29638672 C-102.89267474 9.72154736 -50.56280481 -0.19328087 0 0 Z M-134.4140625 226.2890625 C-136.17509165 228.25039828 -137.84292221 230.26239735 -139.5 232.3125 C-140.74523437 233.81876953 -140.74523437 233.81876953 -142.015625 235.35546875 C-174.13627979 274.75764028 -188.29781838 324.13824992 -183.18359375 374.5546875 C-179.34299714 408.6920559 -165.24309537 450.15839241 -138.84388733 473.6789856 C-133.83761777 478.25791455 -130.00603747 482.28839204 -129.32884884 489.25720024 C-129.19172518 492.99984278 -129.28455244 496.71207648 -129.42578125 500.453125 C-129.44634706 502.07259791 -129.46198176 503.69214017 -129.47294617 505.31170654 C-129.51456654 509.53529262 -129.62225317 513.75458876 -129.74468994 517.97650146 C-129.85806467 522.30015029 -129.90763367 526.62450587 -129.96289062 530.94921875 C-130.08018637 539.40559537 -130.26742566 547.85851133 -130.5 556.3125 C-120.00310514 551.69752282 -109.60415313 546.94233885 -99.3515625 541.8046875 C-98.42857361 541.34402893 -97.50558472 540.88337036 -96.55462646 540.40875244 C-92.77351727 538.52004927 -88.99395942 536.62885763 -85.22558594 534.71484375 C-82.42040374 533.2928183 -79.60588333 531.89098425 -76.7890625 530.4921875 C-75.51876694 529.83777176 -75.51876694 529.83777176 -74.22280884 529.1701355 C-69.56892616 526.88108878 -66.68087678 525.6854597 -61.5 527.3125 C-60.37207031 527.65925781 -59.24414062 528.00601562 -58.08203125 528.36328125 C-56.83808594 528.77964844 -55.59414063 529.19601562 -54.3125 529.625 C-8.50116603 544.29935995 41.39872346 539.84867515 84.40234375 518.4765625 C98.92333203 510.97179977 112.26003495 501.44500767 124.2578125 490.3671875 C126.19106313 488.59560243 128.16289334 486.91467659 130.1875 485.25 C134.05129316 481.94073271 137.25819389 478.22354259 140.5 474.3125 C140.92410156 473.81669434 141.34820312 473.32088867 141.78515625 472.81005859 C173.96713294 435.1262189 188.70555038 386.40931843 185.28173828 337.17382812 C180.7339979 288.03585295 156.66876253 242.9112143 119.32617188 210.81396484 C109.17518579 202.46790008 98.06660312 195.50117316 86.5 189.3125 C85.4996875 188.74273437 84.499375 188.17296875 83.46875 187.5859375 C11.91652749 148.7989654 -79.26899847 169.34334331 -134.4140625 226.2890625 Z " fill="#F7374A" transform="translate(354.5,-0.3125)"/>
</svg>
